name Run_30002_IK.mot
datacolumns 164
datarows 4
range 1.95 1.98
endheader
time	         pelvis_tilt	         pelvis_list	     pelvis_rotation	           pelvis_tx	           pelvis_ty	           pelvis_tz	       hip_flexion_r	     hip_adduction_r	      hip_rotation_r	        knee_angle_r	       ankle_angle_r	       hip_flexion_l	     hip_adduction_l	      hip_rotation_l	        knee_angle_l	       ankle_angle_l	    lumbar_extension	      lumbar_bending	     lumbar_rotation	          arm_flex_r	           arm_add_r	           arm_rot_r	        elbow_flex_r	           pro_sup_r	          arm_flex_l	           arm_add_l	           arm_rot_l	        elbow_flex_l	           pro_sup_l	    subtalar_angle_r	         mtp_angle_r	    subtalar_angle_l	         mtp_angle_l	        wrist_flex_r	         wrist_dev_r	        wrist_flex_l	         wrist_dev_l	             LASI_tx	             LASI_ty	             LASI_tz	             RASI_tx	             RASI_ty	             RASI_tz	             LPSI_tx	             LPSI_ty	             LPSI_tz	             RPSI_tx	             RPSI_ty	             RPSI_tz	             RTH1_tx	             RTH1_ty	             RTH1_tz	             RTH2_tx	             RTH2_ty	             RTH2_tz	             RTH3_tx	             RTH3_ty	             RTH3_tz	             LTH1_tx	             LTH1_ty	             LTH1_tz	             LTH2_tx	             LTH2_ty	             LTH2_tz	             LTH3_tx	             LTH3_ty	             LTH3_tz	             RTB1_tx	             RTB1_ty	             RTB1_tz	             RTB2_tx	             RTB2_ty	             RTB2_tz	             RTB3_tx	             RTB3_ty	             RTB3_tz	             LTB1_tx	             LTB1_ty	             LTB1_tz	             LTB2_tx	             LTB2_ty	             LTB2_tz	             LTB3_tx	             LTB3_ty	             LTB3_tz	             RCAL_tx	             RCAL_ty	             RCAL_tz	             RTOE_tx	             RTOE_ty	             RTOE_tz	             RMT5_tx	             RMT5_ty	             RMT5_tz	             LCAL_tx	             LCAL_ty	             LCAL_tz	             LTOE_tx	             LTOE_ty	             LTOE_tz	             LMT5_tx	             LMT5_ty	             LMT5_tz	             LACR_tx	             LACR_ty	             LACR_tz	             RACR_tx	             RACR_ty	             RACR_tz	             CLAV_tx	             CLAV_ty	             CLAV_tz	               C7_tx	               C7_ty	               C7_tz	             RUA1_tx	             RUA1_ty	             RUA1_tz	             RUA2_tx	             RUA2_ty	             RUA2_tz	             RUA3_tx	             RUA3_ty	             RUA3_tz	             RLEL_tx	             RLEL_ty	             RLEL_tz	             RMEL_tx	             RMEL_ty	             RMEL_tz	             LUA1_tx	             LUA1_ty	             LUA1_tz	             LUA2_tx	             LUA2_ty	             LUA2_tz	             LUA3_tx	             LUA3_ty	             LUA3_tz	             LLEL_tx	             LLEL_ty	             LLEL_tz	             LMEL_tx	             LMEL_ty	             LMEL_tz	      RFAsuperior_tx	      RFAsuperior_ty	      RFAsuperior_tz	        RFAradius_tx	        RFAradius_ty	        RFAradius_tz	          RFAulna_tx	          RFAulna_ty	          RFAulna_tz	      LFAsuperior_tx	      LFAsuperior_ty	      LFAsuperior_tz	        LFAradius_tx	        LFAradius_ty	        LFAradius_tz	          LFAulna_tx	          LFAulna_ty	          LFAulna_tz	
1.95	        -12.06826949	          0.15430870	         -2.39155417	          0.99030137	          1.04987323	         -0.35041624	         31.69637176	          4.35732881	          1.55408018	        -10.13839024	          4.73180759	          2.27933191	          5.83106644	          2.61796874	        -50.72102054	        -15.72471515	          1.40631615	          2.07166280	         -5.97966454	        -48.47911260	        -18.90464782	        -17.95304289	        110.27233657	        102.05134227	        -31.95750167	        -15.23567036	         -5.62915594	        130.64213580	         99.73068550	          0.00000000	          0.00000000	          0.00000000	          0.00000000	          0.00000000	          0.00000000	          0.00000000	          0.00000000	          1.01127574	          1.08075043	         -0.47206186	          0.99861608	          1.09447836	         -0.23039217	          0.85205156	          1.14673181	         -0.41842309	          0.84258711	          1.14393891	         -0.30435415	          0.93732062	          0.97402799	         -0.17448670	          0.93064206	          0.81765956	         -0.20071974	          1.01534435	          0.68454415	         -0.21129398	          0.94665092	          0.94647707	         -0.52377131	          0.83629426	          0.81569419	         -0.48670900	          0.85899102	          0.67219281	         -0.47313909	          1.13076102	          0.45359035	         -0.28528373	          1.05717174	          0.39125920	         -0.22393729	          1.13496431	          0.26619388	         -0.30950303	          0.77296210	          0.45962137	         -0.40503036	          0.63904280	          0.46978853	         -0.46589758	          0.57543781	          0.36551378	         -0.40941973	          1.04576244	          0.10551345	         -0.31943039	          1.27887054	          0.16749691	         -0.34819644	          1.24850336	          0.11062650	         -0.25995296	          0.41355663	          0.41363037	         -0.41279573	          0.46369555	          0.19194958	         -0.34594346	          0.40993232	          0.19850635	         -0.44409261	          0.99637854	          1.58356129	         -0.49829565	          0.97981521	          1.56258092	         -0.18228243	          1.04490934	          1.52871762	         -0.30564735	          0.92714463	          1.59698965	         -0.34809221	          0.83908473	          1.51652086	         -0.14681780	          0.85238095	          1.45226386	         -0.09954295	          0.75273932	          1.41681442	         -0.07823683	          0.69572122	          1.37184035	         -0.06130111	          0.70655213	          1.33854389	         -0.14560527	          0.90384956	          1.49631933	         -0.57014292	          0.93277949	          1.42246101	         -0.59782627	          0.86168791	          1.36392029	         -0.63755150	          0.84669318	          1.29661750	         -0.66022591	          0.81248984	          1.27415877	         -0.57689891	          0.76568902	          1.28999182	         -0.04254770	          0.91699477	          1.20506428	         -0.09735297	          0.87084797	          1.16583958	         -0.06475575	          0.91690726	          1.25788554	         -0.63540055	          1.05559814	          1.29461509	         -0.51309962	          1.06573725	          1.22609991	         -0.53719776	
1.96	        -11.77269755	          0.05140269	         -2.54516028	          0.98879455	          1.04391425	         -0.35000614	         31.18999401	          4.71901713	          1.52008294	        -11.19330508	          5.15801179	          4.30576834	          5.28333380	          1.38197875	        -56.48263154	        -14.84768903	          0.90187153	          2.27057117	         -5.31875707	        -47.52465016	        -19.26577010	        -17.86754813	        110.29369894	        101.99186902	        -32.31986329	        -15.29975197	         -5.48228829	        129.31079332	        100.25695416	          0.00000000	          0.00000000	          0.00000000	          0.00000000	          0.00000000	          0.00000000	          0.00000000	          0.00000000	          1.01007927	          1.07559829	         -0.47241272	          0.99665423	          1.08849288	         -0.23024085	          0.85038862	          1.13993076	         -0.41836097	          0.84075188	          1.13705634	         -0.30443543	          0.93426326	          0.96741591	         -0.17386273	          0.92837739	          0.81097688	         -0.20160809	          1.01367339	          0.67841961	         -0.21348336	          0.94749343	          0.94068019	         -0.52340486	          0.84146249	          0.80624415	         -0.48692806	          0.86847611	          0.66391623	         -0.47457387	          1.12493507	          0.44519541	         -0.28735248	          1.05016743	          0.38415691	         -0.22620858	          1.12516776	          0.25765588	         -0.31173627	          0.78324979	          0.45412059	         -0.40737384	          0.64963508	          0.47218592	         -0.46709890	          0.58047876	          0.37145884	         -0.41163311	          1.03255444	          0.09848014	         -0.32179295	          1.26675087	          0.15778395	         -0.35133225	          1.23535115	          0.10005495	         -0.26324252	          0.42114298	          0.42906808	         -0.41226877	          0.46085204	          0.20299908	         -0.35328714	          0.40674783	          0.21575244	         -0.45069850	          0.99467338	          1.57761593	         -0.49779833	          0.98037784	          1.55573103	         -0.18163056	          1.04429445	          1.52210597	         -0.30560026	          0.92617723	          1.59110613	         -0.34715748	          0.84026184	          1.50839227	         -0.14334620	          0.85489000	          1.44362776	         -0.09725577	          0.75616693	          1.40685758	         -0.07439127	          0.69984482	          1.36137061	         -0.05679505	          0.70988800	          1.32819944	         -0.14107670	          0.90086172	          1.49165924	         -0.56910099	          0.92905542	          1.41744175	         -0.59724726	          0.85723645	          1.35986723	         -0.63666910	          0.84136703	          1.29287710	         -0.65924705	          0.80775829	          1.27033731	         -0.57646891	          0.77117300	          1.28062703	         -0.03878446	          0.92274574	          1.19757041	         -0.09556172	          0.87755990	          1.15776061	         -0.06222038	          0.91054942	          1.25158974	         -0.63577682	          1.05143538	          1.28196846	         -0.51385248	          1.05918382	          1.21386757	         -0.53964550	
1.97	        -11.55739521	         -0.05163460	         -2.62300149	          0.98718013	          1.03692527	         -0.34949048	         30.74027609	          5.00332473	          1.29745556	        -12.63623681	          4.66454379	          6.47710197	          4.50264335	          0.12696899	        -62.07953808	        -13.52161001	          0.52264852	          2.42535835	         -4.68666940	        -46.40024759	        -19.72398950	        -17.61695473	        110.11793828	        101.79584845	        -32.71752096	        -15.36030649	         -5.38075066	        127.82131191	        100.87138214	          0.00000000	          0.00000000	          0.00000000	          0.00000000	          0.00000000	          0.00000000	          0.00000000	          0.00000000	          1.00845387	          1.06950039	         -0.47248573	          0.99495199	          1.08143111	         -0.22997114	          0.84871458	          1.13253641	         -0.41800376	          0.83912181	          1.12905428	         -0.30431654	          0.93122202	          0.95986359	         -0.17336750	          0.92540425	          0.80313723	         -0.20343817	          1.01148297	          0.67136503	         -0.21533272	          0.94791617	          0.93440290	         -0.52337230	          0.84648638	          0.79637042	         -0.48695719	          0.87832064	          0.65526178	         -0.47708415	          1.11777676	          0.43498675	         -0.28870599	          1.04151795	          0.37591652	         -0.22743675	          1.11313110	          0.24753912	         -0.31317393	          0.79463594	          0.44822470	         -0.41085264	          0.66158114	          0.47423098	         -0.46888080	          0.58766238	          0.37657751	         -0.41429532	          1.01587404	          0.09313061	         -0.32336421	          1.25137985	          0.14336004	         -0.35448761	          1.21809224	          0.08610486	         -0.26617931	          0.43060925	          0.44267700	         -0.41000867	          0.46223983	          0.21260403	         -0.36209303	          0.40763233	          0.23229448	         -0.45825686	          0.99255534	          1.57054401	         -0.49742605	          0.98085361	          1.54794242	         -0.18103520	          1.04357448	          1.51468854	         -0.30563155	          0.92502076	          1.58420256	         -0.34635625	          0.84151101	          1.49905625	         -0.13949555	          0.85783652	          1.43371746	         -0.09467943	          0.76026948	          1.39534823	         -0.07003987	          0.70482461	          1.34938737	         -0.05152264	          0.71376790	          1.31637022	         -0.13574602	          0.89745645	          1.48578437	         -0.56808634	          0.92493316	          1.41118007	         -0.59663722	          0.85235467	          1.35453659	         -0.63551467	          0.83549323	          1.28799418	         -0.65816787	          0.80243579	          1.26552464	         -0.57572295	          0.77745629	          1.26957625	         -0.03449316	          0.92922681	          1.18861443	         -0.09360567	          0.88506821	          1.14816554	         -0.05951752	          0.90352465	          1.24414170	         -0.63618260	          1.04662703	          1.26771445	         -0.51489573	          1.05187474	          1.20019342	         -0.54251719	
1.98	        -11.40049150	         -0.20113549	         -2.58629462	          0.98552720	          1.02900739	         -0.34896561	         30.42529868	          5.22899836	          0.48634511	        -14.61118809	          3.33053810	          8.74105103	          3.51999956	         -0.95254367	        -67.47155554	        -11.57263527	          0.24847873	          2.59834453	         -4.10082669	        -45.14002996	        -20.24646510	        -17.26092057	        109.75584871	        101.45280304	        -33.12522352	        -15.43369475	         -5.28209159	        126.15339104	        101.55657500	          0.00000000	          0.00000000	          0.00000000	          0.00000000	          0.00000000	          0.00000000	          0.00000000	          0.00000000	          1.00620205	          1.06226294	         -0.47192207	          0.99364704	          1.07326772	         -0.22980450	          0.84686580	          1.12454559	         -0.41753865	          0.83765317	          1.12021310	         -0.30401581	          0.92878811	          0.95109867	         -0.17359575	          0.92183943	          0.79445327	         -0.20537433	          1.00852271	          0.66304905	         -0.21629069	          0.94804511	          0.92754747	         -0.52357693	          0.85149751	          0.78613169	         -0.48697790	          0.88857942	          0.64623410	         -0.48012835	          1.10986365	          0.42340743	         -0.28960028	          1.03170968	          0.36662799	         -0.22837136	          1.09918098	          0.23624288	         -0.31486326	          0.80692409	          0.44191891	         -0.41537102	          0.67461304	          0.47609603	         -0.47095033	          0.59673721	          0.38078181	         -0.41754695	          0.99606500	          0.09074337	         -0.32582821	          1.23322663	          0.12390180	         -0.35698769	          1.19671336	          0.07078129	         -0.26818722	          0.44135592	          0.45404274	         -0.40657369	          0.46793887	          0.22087048	         -0.37195660	          0.41275156	          0.24748287	         -0.46628094	          0.99001143	          1.56245916	         -0.49712087	          0.98129695	          1.53920370	         -0.18046250	          1.04282951	          1.50652062	         -0.30568383	          0.92364253	          1.57617882	         -0.34561395	          0.84294423	          1.48849957	         -0.13547182	          0.86124581	          1.42278026	         -0.09184726	          0.76503017	          1.38246698	         -0.06524149	          0.71068256	          1.33603297	         -0.04561417	          0.71826010	          1.30311245	         -0.12976407	          0.89357992	          1.47866721	         -0.56691169	          0.92040086	          1.40372680	         -0.59599419	          0.84708260	          1.34799442	         -0.63422351	          0.82909793	          1.28203840	         -0.65705991	          0.79646352	          1.25978565	         -0.57471395	          0.78455402	          1.25702471	         -0.02981631	          0.93642512	          1.17827400	         -0.09148369	          0.89337120	          1.13712996	         -0.05671490	          0.89587255	          1.23557152	         -0.63667304	          1.04111193	          1.25193779	         -0.51624556	          1.04377763	          1.18514276	         -0.54583167	
